<?xml version="1.0" standalone="no"?>
<!DOCTYPE svg PUBLIC "-//W3C//DTD SVG 20010904//EN"
 "http://www.w3.org/TR/2001/REC-SVG-20010904/DTD/svg10.dtd">
<svg version="1.0" xmlns="http://www.w3.org/2000/svg"
 width="275.000000pt" height="183.000000pt" viewBox="0 0 275.000000 183.000000"
 preserveAspectRatio="xMidYMid meet">

<g transform="translate(0.000000,183.000000) scale(0.100000,-0.100000)"
fill="#000000" stroke="none">
<path d="M1235 1465 c-19 -18 -25 -35 -25 -70 l0 -45 165 0 165 0 0 45 c0 35
-6 52 -25 70 -23 24 -30 25 -140 25 -110 0 -117 -1 -140 -25z"/>
<path d="M1000 1294 c-41 -15 -60 -30 -75 -59 -19 -42 -19 -60 1 -79 14 -14
68 -16 449 -16 381 0 435 2 449 16 20 19 20 37 1 78 -29 62 -23 61 -435 63
-206 1 -382 0 -390 -3z"/>
<path d="M1020 1067 c0 -26 71 -631 76 -653 3 -12 17 -33 31 -46 24 -23 27
-23 248 -23 221 0 224 0 249 24 14 13 27 35 30 50 6 28 76 627 76 649 0 9 -78
12 -355 12 -291 0 -355 -2 -355 -13z m230 -337 l0 -250 -30 0 -30 0 0 250 0
250 30 0 30 0 0 -250z m150 0 l0 -250 -25 0 -25 0 0 250 0 250 25 0 25 0 0
-250z m160 0 l0 -250 -30 0 -30 0 0 250 0 250 30 0 30 0 0 -250z"/>
</g>
</svg>
