<?xml version="1.0" standalone="no"?>
<!DOCTYPE svg PUBLIC "-//W3C//DTD SVG 20010904//EN"
 "http://www.w3.org/TR/2001/REC-SVG-20010904/DTD/svg10.dtd">
<svg version="1.0" xmlns="http://www.w3.org/2000/svg"
 width="200.000000pt" height="200.000000pt" viewBox="0 0 200.000000 200.000000"
 preserveAspectRatio="xMidYMid meet">

<g transform="translate(0.000000,200.000000) scale(0.100000,-0.100000)"
fill="#000000" stroke="none">
<path d="M1193 1938 c-4 -7 -18 -35 -30 -63 -23 -54 -38 -62 -108 -64 -78 -2
-86 -45 -20 -103 48 -43 54 -63 35 -128 -21 -74 11 -93 81 -50 27 16 57 30 67
30 9 0 39 -13 66 -29 39 -23 54 -27 69 -19 17 9 18 17 12 82 l-6 73 45 40 c67
59 59 102 -19 104 -72 2 -85 10 -109 68 -29 66 -62 90 -83 59z"/>
<path d="M304 1889 c-116 -44 -194 -151 -202 -276 -6 -88 9 -147 53 -208 85
-120 234 -167 375 -120 76 25 170 118 195 194 26 80 18 190 -20 260 -78 143
-251 208 -401 150z"/>
<path d="M1566 1794 c-23 -22 -20 -60 6 -78 18 -13 54 -16 180 -16 145 0 160
2 178 20 24 24 26 53 4 74 -13 13 -44 16 -184 16 -140 0 -171 -3 -184 -16z"/>
<path d="M1566 1574 c-23 -22 -20 -60 6 -78 18 -13 54 -16 180 -16 145 0 160
2 178 20 24 24 26 53 4 74 -13 13 -44 16 -184 16 -140 0 -171 -3 -184 -16z"/>
<path d="M987 1352 c-23 -26 -21 -58 5 -76 20 -14 81 -16 470 -16 435 0 449 1
468 20 25 25 26 52 2 73 -17 15 -64 17 -474 17 -428 0 -456 -1 -471 -18z"/>
<path d="M260 1171 c-170 -56 -198 -154 -207 -732 -5 -325 -4 -356 11 -372 16
-15 48 -17 305 -17 238 0 291 3 300 14 8 9 18 113 28 288 8 150 17 275 19 277
2 3 17 -7 32 -21 83 -77 152 -98 313 -98 118 0 329 29 372 51 92 48 111 163
39 232 -43 41 -82 49 -163 32 -89 -19 -252 -33 -309 -27 -42 4 -52 12 -205
167 -194 197 -211 206 -395 211 -63 2 -126 0 -140 -5z"/>
<path d="M992 1134 c-27 -18 -29 -55 -4 -77 17 -15 64 -17 475 -17 l456 0 15
22 c21 30 20 44 -4 68 -19 19 -33 20 -468 20 -389 0 -450 -2 -470 -16z"/>
</g>
</svg>
