<?xml version="1.0" standalone="no"?>
<!DOCTYPE svg PUBLIC "-//W3C//DTD SVG 20010904//EN"
 "http://www.w3.org/TR/2001/REC-SVG-20010904/DTD/svg10.dtd">
<svg version="1.0" xmlns="http://www.w3.org/2000/svg"
 width="512.000000pt" height="512.000000pt" viewBox="0 0 512.000000 512.000000"
 preserveAspectRatio="xMidYMid meet">

<g transform="translate(0.000000,512.000000) scale(0.100000,-0.100000)"
fill="#000000" stroke="none">
<path d="M4059 4427 c-61 -31 -311 -238 -305 -253 5 -13 675 -826 709 -861
l22 -21 115 95 c160 131 190 162 211 208 22 48 24 133 5 178 -8 18 -126 167
-263 332 -276 333 -290 345 -393 345 -39 0 -70 -7 -101 -23z"/>
<path d="M2742 3361 c-468 -385 -865 -710 -882 -724 l-29 -25 365 -441 c201
-243 369 -441 373 -441 11 0 1762 1438 1761 1447 0 10 -723 883 -730 883 -3 0
-389 -315 -858 -699z"/>
<path d="M1692 2479 c-6 -13 -103 -258 -216 -543 -113 -286 -204 -521 -202
-523 5 -5 1139 198 1148 206 5 5 -651 812 -707 870 -12 12 -15 11 -23 -10z"/>
</g>
</svg>
